<svg class="svg_udlogo_onlytext" width="1600mm" height="200mm" viewBox="0 0 1600 200">
  <path
     d="M 260.32842,103.84294 V 28.442419 h 11.41195 11.41198 v 36.273774 36.273757 h 10.88144 10.88143 l 17.46976,-22.21257 17.46977,-22.212585 12.81342,-0.224626 c 7.04737,-0.123554 12.81341,-0.0227 12.81341,0.223484 0,0.24643 -9.12469,12.292451 -20.27711,26.768969 -11.15237,14.476584 -20.72925,27.045128 -21.28195,27.930128 -0.89989,1.44094 1.41043,5.03757 22.11114,34.42157 l 23.11605,32.81248 0.20903,-61.16982 0.20904,-61.169885 h 52.57143 52.57142 v 61.135575 61.13554 H 463.70627 452.70186 V 127.88959 77.350878 h -30.56799 -30.56782 v 50.409322 50.40937 l -16.50659,0.53477 c -9.0786,0.29418 -20.0463,0.5358 -24.37264,0.53697 l -7.86602,0.001 -19.44117,-27.26221 -19.44118,-27.26222 -10.39305,-0.0451 -10.39305,-0.0451 v 27.30722 27.30719 H 271.74037 260.32842 Z M 1321.6419,142.9697 v -36.27377 h 41.9797 41.9798 V 92.430988 78.16601 h -28.1224 -28.1223 V 67.161606 56.157201 h 39.5342 39.5344 v 61.543129 61.54312 h -53.3918 -53.3916 z m 83.9595,0 v -14.26498 h -30.9754 -30.9754 v 14.26498 14.26494 h 30.9754 30.9754 z M 10.895315,102.62022 V 26.812153 h 11.407082 11.407091 l 0.208758,65.007478 0.208767,65.007459 36.477555,0.21216 36.477572,0.21217 V 92.031755 26.812113 h 11.00441 11.00437 v 75.808077 75.8081 H 69.993209 10.895515 Z M 142.94815,117.29277 V 56.157201 h 52.57656 52.57659 v 61.135569 61.13555 H 237.0969 226.09249 V 127.88959 77.350878 h -30.1602 -30.16019 v 50.538712 50.53873 h -11.412 -11.41195 z m 341.54399,0 V 56.157201 h 54.20685 54.20683 v 61.135569 61.13555 h -54.20683 -54.20685 z m 85.58974,0 V 77.350878 h -31.38289 -31.38292 v 39.941892 39.94187 h 31.38292 31.38289 z m 34.23595,0 V 56.157201 h 11.00439 11.00441 v 50.946319 50.94626 h 18.74824 18.74822 V 107.10352 56.157201 h 11.0044 11.0044 v 50.946319 50.94626 h 18.74825 18.74824 V 107.10352 56.157201 h 11.0044 11.00439 v 61.135569 61.13555 h -70.50968 -70.50966 z m 152.4313,0 V 56.157201 h 52.57656 52.57661 v 61.135569 61.13555 H 850.89786 839.89349 V 127.88959 77.350878 h -30.5678 -30.56775 v 50.538712 50.53873 H 767.75351 756.74913 Z M 914.07135,102.62022 V 26.812153 l 46.66674,0.04791 46.66701,0.04791 12.8385,16.570699 12.8384,16.570687 v 59.189431 59.18947 h -59.50541 -59.50524 v -75.80811 z m 96.18675,10.3773 V 68.76038 l -7.9696,-10.173519 -7.96977,-10.173491 -28.3041,-0.214434 -28.3042,-0.214421 v 54.624965 54.62501 h 36.27372 36.27395 z m 31.7905,4.29525 V 56.157201 h 53.7992 53.7993 v 61.135569 61.13555 h -53.7993 -53.7992 z m 85.5897,0 V 77.350878 h -31.7905 -31.7905 v 39.398472 c 0,21.66914 0.2445,39.643 0.5435,39.94187 0.2988,0.29889 14.6046,0.54342 31.7906,0.54342 h 31.2469 z m 34.236,0 V 56.157201 h 74.9929 74.993 v 61.135569 61.13555 h -11.0044 -11.0045 V 127.88959 77.350878 h -21.1936 -21.1937 v 50.538712 50.53873 h -10.5968 -10.5968 V 127.88959 77.350878 h -21.1937 -21.1937 v 50.538712 50.53873 h -11.0044 -11.0043 z m 321.1655,0 V 56.157201 h 52.5765 52.5765 v 61.135569 61.13555 h -11.0042 -11.0046 V 127.88959 77.350878 h -30.5677 -30.5678 v 50.538712 50.53873 h -11.0043 -11.0044 z m -33.4208,9.78167 V 76.53573 h -8.9667 -8.9665 V 66.346472 56.157201 h 20.3785 20.3785 v 60.727999 60.72797 h -11.4119 -11.4119 z m 0.3629,-82.559051 c -0.2305,-0.600912 -0.3148,-5.288466 -0.1872,-10.416817 l 0.232,-9.324265 h 11.0043 11.0046 v 10.189258 10.189232 l -10.8172,0.227451 c -8.4517,0.177899 -10.9086,-0.01061 -11.2363,-0.864979 z" />
</svg>
