<svg class="svg_udlogo_text" xmlns="http://www.w3.org/2000/svg" width="800mm" height="300mm" viewBox="0 0 800 300">
  <path d="m 319.78389,162.48322 v -26.61889 h 4.0288 4.02881 v 12.80585 12.80584 h 3.8415 3.84151 l 6.16741,-7.84178 6.16741,-7.84178 4.52356,-0.0793 c 2.48796,-0.0436 4.52356,-0.008 4.52356,0.0789 0,0.087 -3.22132,4.33964 -7.15849,9.45034 -3.93716,5.11071 -7.31812,9.54782 -7.51324,9.86026 -0.31769,0.5087 0.49793,1.77843 7.80597,12.15196 l 8.16073,11.5839 0.0738,-21.59499 0.0738,-21.595 h 18.55946 18.55946 v 21.58289 21.58288 h -3.88491 -3.88492 v -17.84181 -17.84185 h -10.79152 -10.79145 v 17.79617 17.79618 l -5.82738,0.1888 c -3.20505,0.10385 -7.07701,0.18915 -8.60435,0.18956 l -2.77697,7.9e-4 -6.86338,-9.62447 -6.86338,-9.62447 -3.66909,-0.0159 -3.66909,-0.0159 v 9.64035 9.64035 h -4.02881 -4.0288 z m 374.67887,13.81305 v -12.80585 h 14.82024 14.82026 v -5.036 -5.03601 h -9.92814 -9.92812 v -3.88492 -3.88492 h 13.95693 13.95693 v 21.72677 21.72677 h -18.84905 -18.84905 z m 29.6405,0 v -5.03601 h -10.93533 -10.93534 v 5.03601 5.036 h 10.93534 10.93533 z M 231.72572,162.05156 v -26.76277 h 4.02708 4.02708 l 0.0737,22.9498 0.0737,22.9498 12.87779,0.0749 12.87779,0.0749 v -23.02471 -23.0247 h 3.88492 3.88491 v 26.76277 26.76278 h -20.86345 -20.86345 z m 46.61903,5.1799 v -21.58289 h 18.56128 18.56128 v 21.58289 21.58288 h -3.88492 -3.88492 v -17.84185 -17.84185 h -10.64755 -10.64755 v 17.84185 17.84185 h -4.02882 -4.0288 z m 120.57638,0 v -21.58289 h 19.13682 19.13682 v 21.58289 21.58288 h -19.13682 -19.13682 z m 30.21603,0 v -14.10082 h -11.07921 -11.07921 v 14.10082 14.10081 h 11.07921 11.07921 z m 12.08642,0 v -21.58289 h 3.88492 3.88492 v 17.98574 17.98573 h 6.61875 6.61875 v -17.98573 -17.98574 h 3.88492 3.88492 v 17.98574 17.98573 h 6.61875 6.61875 v -17.98573 -17.98574 h 3.88492 3.88492 v 21.58289 21.58288 h -24.89226 -24.89226 z m 53.81332,0 v -21.58289 h 18.56127 18.56129 v 21.58289 21.58288 h -3.88493 -3.88491 v -17.84185 -17.84185 h -10.79145 -10.79143 v 17.84185 17.84185 h -3.88493 -3.88491 z m 55.53997,-5.1799 v -26.76277 l 16.47491,0.0169 16.47494,0.0169 4.53242,5.85001 4.53239,5.85 v 20.89584 20.89585 H 571.5842 550.57687 v -26.76278 z m 33.95707,3.66353 v -15.61718 l -2.81353,-3.59159 -2.81355,-3.59158 -9.99228,-0.0757 -9.99233,-0.0757 v 19.28443 19.28444 h 12.80583 12.80586 z m 11.2231,1.51637 v -21.58289 h 18.99292 18.99296 v 21.58289 21.58288 h -18.99296 -18.99292 z m 30.21602,0 v -14.10082 h -11.2231 -11.22309 v 13.90897 c 0,7.64993 0.0863,13.9953 0.19185,14.10081 0.10551,0.10552 5.15591,0.19185 11.22312,0.19185 h 11.03122 z m 12.08643,0 v -21.58289 h 26.475 26.47501 v 21.58289 21.58288 h -3.88493 -3.88491 v -17.84185 -17.84185 h -7.48207 -7.48207 v 17.84185 17.84185 h -3.74103 -3.74105 v -17.84185 -17.84185 h -7.48204 -7.48207 v 17.84185 17.84185 h -3.88493 -3.88491 z m 113.38208,0 v -21.58289 h 18.56129 18.56126 v 21.58289 21.58288 h -3.8849 -3.88493 v -17.84185 -17.84185 h -10.79143 -10.79145 v 17.84185 17.84185 h -3.88491 -3.88493 z m -11.79864,3.45326 v -17.84185 h -3.1655 -3.16548 v -3.59715 -3.59715 h 7.19429 7.19428 v 21.439 21.439 h -4.02878 -4.02881 z m 0.12814,-29.1461 c -0.0814,-0.21214 -0.11116,-1.867 -0.0661,-3.67748 l 0.0819,-3.29178 h 3.88493 3.88493 v 3.59715 3.59714 l -3.81881,0.0803 c -2.98376,0.0628 -3.85112,-0.004 -3.96679,-0.30537 z" />
  <path d="m 114.08737,276.46165 c -0.80036,-0.4836 -3.59833,-2.10939 -6.2177,-3.61287 -2.61938,-1.50349 -6.13172,-3.52468 -7.80521,-4.49156 -1.673491,-0.96687 -4.769121,-2.75189 -6.879171,-3.96671 -2.11005,-1.21482 -5.20568,-3.00156 -6.87917,-3.97053 -1.67349,-0.96896 -5.1263,-2.96023 -7.67291,-4.42503 -2.54662,-1.46481 -9.21412,-5.30707 -14.81667,-8.53838 -5.60255,-3.2313 -13.40114,-7.72784 -17.33021,-9.99232 -3.92906,-2.26447 -8.51297,-4.91217 -10.18645,-5.88377 -1.67349,-0.9716 -6.31693,-3.65084 -10.31875,-5.95387 -4.00183,-2.30303 -8.64527,-4.98499 -10.31875,-5.95991 -1.67349,-0.97492 -3.42967,-1.97005 -3.90261,-2.21139 l -0.85989,-0.43881 V 156.59598 96.175491 l 5.62239,-3.247451 c 3.09232,-1.786091 6.99162,-4.04105 8.66511,-5.011021 1.67349,-0.96997 4.76911,-2.7555 6.87916,-3.967839 2.11005,-1.21234 4.22316,-2.433241 4.69579,-2.713109 l 0.85932,-0.50886 0.0667,60.493729 0.0667,60.49374 6.87917,3.97855 c 3.78354,2.18821 8.54604,4.94052 10.58333,6.11626 2.03729,1.17573 5.07339,2.93142 6.74688,3.90152 1.67349,0.9701 6.73364,3.88589 11.24479,6.47954 4.51114,2.59364 9.5713,5.51052 11.24479,6.48196 12.60711,7.31825 17.514641,10.05242 17.765121,9.89761 0.20983,-0.12968 0.26299,-27.16004 0.19217,-97.6978 l -0.0979,-97.51852 1.4552,-0.82281 c 0.80037,-0.45255 3.76743,-2.15925 6.59347,-3.79268 2.82605,-1.63343 5.29456,-2.90989 5.48558,-2.83659 0.30846,0.11837 6.38325,3.59118 16.23137,9.27909 3.31247,1.91316 7.37724,4.25882 13.69219,7.90136 1.85539,1.07022 6.23094,3.58896 9.72344,5.59721 3.4925,2.00826 9.32656,5.37158 12.96458,7.474049 3.63803,2.102472 8.28146,4.783672 10.31875,5.95821 2.03729,1.174552 5.0734,2.929152 6.74689,3.899112 1.67348,0.96996 6.19785,3.581008 10.05416,5.802318 3.85631,2.22132 8.61881,4.96689 10.58333,6.10127 1.96454,1.13438 5.95312,3.435871 8.86355,5.114412 l 5.29167,3.0519 0.0623,60.408559 0.0622,60.40859 -6.27996,3.61068 c -3.45398,1.98588 -8.12543,4.67774 -10.38101,5.9819 -2.25557,1.30417 -6.36322,3.67654 -9.12813,5.27194 -2.76489,1.5954 -11.27785,6.51272 -18.91771,10.92738 -7.63983,4.41467 -15.02171,8.67925 -16.40415,9.47685 -3.52941,2.03629 -8.8118,5.08584 -12.7,7.33177 -1.81903,1.0507 -6.04574,3.49031 -9.39272,5.42135 -3.34697,1.93105 -7.5737,4.37093 -9.39271,5.42196 -9.89213,5.71572 -12.15549,7.01281 -12.22575,7.00638 -0.0426,-0.004 -0.73222,-0.40276 -1.53258,-0.88636 z m 23.23927,-42.27307 c 4.3171,-2.49554 9.39709,-5.43367 11.28886,-6.52917 1.89177,-1.0955 4.8088,-2.78454 6.4823,-3.75343 1.67349,-0.96889 5.48349,-3.16722 8.46666,-4.88519 5.86028,-3.37485 10.67913,-6.15812 19.57917,-11.30857 3.12869,-1.81057 6.78987,-3.92235 8.13593,-4.69284 l 2.4474,-1.4009 v -45.06847 -45.06847 l -3.24115,-1.89215 c -1.78263,-1.04068 -4.43176,-2.57956 -5.88698,-3.41972 -1.4552,-0.84017 -4.07458,-2.35377 -5.82083,-3.36357 -1.74625,-1.0098 -4.90141,-2.829949 -7.01145,-4.04477 -2.11006,-1.214819 -5.20568,-3.000759 -6.87917,-3.96875 -3.96477,-2.293329 -8.70363,-5.02574 -18.12396,-10.450251 -4.22011,-2.43006 -9.57792,-5.522359 -11.90625,-6.87179 -2.32834,-1.34943 -4.62029,-2.6505 -5.09323,-2.891279 l -0.8599,-0.437769 v 82.292219 c 0,58.90976 0.0814,82.29221 0.28666,82.29221 0.15766,0 3.81884,-2.0418 8.13594,-4.53734 z" />
</svg>
