<svg class="svg_udlogo_onlylogo" xmlns="http://www.w3.org/2000/svg" width="750mm" height="750mm" viewBox="0 0 750 750">
  <path d="m 376.71835,732.29987 c -2.34384,-1.41621 -10.53763,-6.17732 -18.20841,-10.58021 -7.67079,-4.40294 -17.95661,-10.32198 -22.8574,-13.15346 -4.90078,-2.83144 -13.96626,-8.05884 -20.14551,-11.61643 -6.17923,-3.55755 -15.24472,-8.79001 -20.1455,-11.6276 -4.90078,-2.8376 -15.01227,-8.66899 -22.46996,-12.95863 -7.45772,-4.28967 -26.98335,-15.54165 -43.39031,-25.00445 -16.40695,-9.46279 -39.24496,-22.63084 -50.75116,-29.2623 -11.50618,-6.63145 -24.93003,-14.38519 -29.83082,-17.23049 -4.90077,-2.84532 -18.49899,-10.69142 -30.21823,-17.43579 -11.71929,-6.74438 -25.317478,-14.59844 -30.218253,-17.45348 -4.900782,-2.85503 -10.043719,-5.76924 -11.428714,-6.47601 l -2.518171,-1.28504 V 381.27573 204.33554 l 16.465054,-9.51009 c 9.055794,-5.23052 20.474814,-11.83413 25.375594,-14.67467 4.90078,-2.84054 13.96623,-8.06942 20.14548,-11.61974 6.17927,-3.55031 12.36743,-7.12569 13.75152,-7.94528 l 2.51651,-1.49018 0.19532,177.15464 0.19533,177.15469 20.14551,11.65111 c 11.08002,6.40813 25.02691,14.46821 30.99309,17.91133 5.96613,3.4431 14.85732,8.58461 19.7581,11.42553 4.90076,2.84092 19.71933,11.37974 32.93012,18.9752 13.21077,7.59542 28.02934,16.13745 32.93013,18.98229 36.91965,21.43131 51.29126,29.43829 52.02478,28.98495 0.61448,-0.37977 0.77017,-79.53762 0.56278,-286.10603 l -0.28671,-285.580987 4.26152,-2.409577 c 2.34387,-1.325289 11.03285,-6.323324 19.30885,-11.10679 8.27603,-4.783464 15.505,-8.521546 16.0644,-8.306889 0.90332,0.346642 18.69322,10.516694 47.53323,27.173619 9.70051,5.602654 21.6041,12.471868 40.09731,23.138973 5.43346,3.134113 18.24716,10.510195 28.47489,16.391322 10.22771,5.881149 27.31263,15.730559 37.9665,21.887599 10.65387,6.15704 24.25209,14.00888 30.21825,17.44849 5.96616,3.43966 14.85731,8.57796 19.7581,11.41846 4.90078,2.84052 18.1503,10.48692 29.4434,16.99198 11.29312,6.5051 25.24,14.54544 30.99309,17.86744 5.75309,3.32202 17.43359,10.06188 25.9567,14.97745 l 15.49655,8.93743 0.18244,176.90525 0.18215,176.90532 -18.39074,10.57379 c -10.11491,5.81561 -23.79515,13.69867 -30.40054,17.51788 -6.60542,3.81922 -18.63459,10.76666 -26.73155,15.43876 -8.09691,4.6721 -33.02697,19.07237 -55.40011,32.00061 -22.37312,12.92827 -43.99081,25.41699 -48.03924,27.75275 -10.33579,5.96321 -25.80516,14.89378 -37.19169,21.47094 -5.32697,3.07696 -17.70481,10.2213 -27.50637,15.87631 -9.80156,5.65501 -22.17942,12.80018 -27.50636,15.87811 -28.96892,16.73836 -35.5971,20.53683 -35.80288,20.51801 -0.12476,-0.0117 -2.14426,-1.17945 -4.48813,-2.59567 z m 68.05572,-123.7958 c 12.64254,-7.30815 27.51919,-15.9124 33.05919,-19.12056 5.54002,-3.20817 14.08248,-8.15446 18.98325,-10.99187 4.90079,-2.83733 16.05829,-9.27511 24.79448,-14.30613 17.1617,-9.88319 31.27358,-18.03394 57.3372,-33.11692 9.1623,-5.30222 19.88399,-11.48652 23.8259,-13.74289 l 7.16716,-4.1025 V 381.14108 249.15899 l -9.49165,-5.54112 c -5.22039,-3.04761 -12.97834,-7.55419 -17.2399,-10.01458 -4.26151,-2.46041 -11.93231,-6.89296 -17.04617,-9.85014 -5.11386,-2.95718 -14.35368,-8.28746 -20.53292,-11.84503 -6.17923,-3.55757 -15.24469,-8.78767 -20.14548,-11.62241 -11.61077,-6.71596 -25.4884,-14.71776 -53.07564,-30.60333 -12.35851,-7.11639 -28.04875,-16.17212 -34.8672,-20.1239 -6.81851,-3.95178 -13.53044,-7.76193 -14.91543,-8.46705 l -2.5182,-1.282 V 380.8005 c 0,172.51604 0.23839,240.99106 0.83948,240.99106 0.4617,0 11.18337,-5.97936 23.82593,-13.28749 z" />
</svg>
